<?xml version="1.0" encoding="utf-8"?>
<!-- Generator: Adobe Illustrator 18.0.0, SVG Export Plug-In . SVG Version: 6.00 Build 0)  -->
<!DOCTYPE svg PUBLIC "-//W3C//DTD SVG 1.1//EN" "http://www.w3.org/Graphics/SVG/1.1/DTD/svg11.dtd">
<svg version="1.1" id="Calque_1" xmlns="http://www.w3.org/2000/svg" xmlns:xlink="http://www.w3.org/1999/xlink" x="0px" y="0px"
	 viewBox="0 0 100 100" enable-background="new 0 0 100 100" xml:space="preserve">
<g>
	<path fill="#FFFFFF" d="M84.6,57.5c-0.3,1-0.6,2.1-1.1,3c-1.4,2.7-3.8,4.1-6.8,4.4c-0.4,0-0.7,0-1.1,0c-7.5,0-15,0-22.5,0
		c-1.2,0-1.5-0.2-1.5-1.5c0-8.7,0-17.3,0-26c0-1.1,0.1-1.2,1.1-1.5c3.5-1.2,7-1.2,10.5,0.1c2.5,0.9,4.6,2.5,6.2,4.6
		c1.8,2.2,2.8,4.7,3.2,7.5c0,0.2,0.1,0.3,0.1,0.5c0.8-0.2,1.5-0.4,2.2-0.5c4.6-0.6,8.6,2.4,9.4,6.9c0,0.2,0.1,0.4,0.1,0.5
		C84.6,56.2,84.6,56.9,84.6,57.5z"/>
	<path fill="#FFFFFF" d="M48.7,50.9c0.1-4.2,0.2-8.4,0.2-12.6c0-0.2,0-0.4,0.1-0.7c0.1-0.4,0.5-0.7,0.9-0.6c0.4,0,0.8,0.3,0.8,0.7
		c0.1,0.7,0.1,1.5,0.1,2.2c0.1,5.5,0.3,11,0.4,16.6c0,2.5-0.3,5-0.4,7.5c0,0.6-0.4,0.9-0.9,0.9c-0.5,0-0.9-0.4-0.9-1
		c-0.1-3.3-0.2-6.7-0.3-10C48.6,52.9,48.6,51.9,48.7,50.9C48.6,50.9,48.6,50.9,48.7,50.9z"/>
	<path fill="#FFFFFF" d="M45.8,51.6c0.1-4.5,0.2-8.1,0.2-11.6c0-0.2,0-0.4,0.1-0.5c0.1-0.5,0.4-0.7,0.9-0.7c0.5,0,0.8,0.3,0.8,0.8
		c0.1,0.7,0.1,1.4,0.1,2c0.1,5.1,0.3,10.2,0.3,15.3c0,2.4-0.2,4.9-0.4,7.3c0,0.5-0.4,0.9-0.8,0.8c-0.5,0-0.8-0.4-0.9-1
		c-0.1-1.5-0.2-3-0.2-4.6C45.8,56.5,45.8,53.6,45.8,51.6z"/>
	<path fill="#FFFFFF" d="M45.1,52.5c0.2,3.4,0,7.5-0.3,11.5c0,0.6-0.3,0.9-0.8,1c-0.5,0-0.8-0.3-0.8-0.9c-0.3-4.4-0.4-8.7-0.2-13.1
		c0.1-2.6,0.1-5.3,0.2-7.9c0-0.2,0-0.5,0-0.7c0.1-0.4,0.3-0.7,0.8-0.7c0.5,0,0.7,0.3,0.8,0.8c0.1,0.5,0.1,1.1,0.1,1.7
		C45,46.6,45,49.2,45.1,52.5z"/>
	<path fill="#FFFFFF" d="M42.2,52.9c0.2,2.6,0,6.6-0.3,10.6c0,0.2,0,0.5-0.1,0.7c-0.1,0.4-0.3,0.7-0.7,0.7c-0.4,0-0.7-0.3-0.7-0.7
		c0-0.1,0-0.2,0-0.3c-0.1-2.7-0.3-5.5-0.3-8.2c0-4.5,0.2-9.1,0.3-13.6c0-0.8,0.3-1.2,0.8-1.2c0.5,0,0.7,0.3,0.7,1.1
		C42,45.3,42.1,48.4,42.2,52.9z"/>
	<path fill="#FFFFFF" d="M37.3,52c0.1-3.3,0.2-6.7,0.3-10c0-0.3,0-0.6,0.1-0.8c0.1-0.2,0.4-0.5,0.6-0.5c0.2,0,0.5,0.3,0.6,0.5
		c0.1,0.1,0.1,0.4,0.1,0.5c0.1,4.8,0.4,9.6,0.4,14.5c0,2.7-0.3,5.4-0.4,8c0,0.4-0.2,0.7-0.7,0.7c-0.5,0-0.7-0.4-0.7-0.8
		c-0.3-3.9-0.5-7.7-0.3-11.6C37.3,52.3,37.2,52.2,37.3,52C37.2,52,37.3,52,37.3,52z"/>
	<path fill="#FFFFFF" d="M34.3,56.7c0.2-5.7,0.3-10.1,0.5-14.5c0-0.2,0-0.5,0.2-0.7c0.3-0.4,0.9-0.3,1.1,0.2
		c0.1,0.2,0.1,0.4,0.1,0.7c0.2,4.8,0.4,9.6,0.5,14.5c0,1.5-0.2,3-0.3,4.6c-0.1,1-0.1,1.9-0.2,2.9c0,0.4-0.3,0.7-0.7,0.6
		c-0.4,0-0.6-0.3-0.6-0.7C34.6,61.3,34.4,58.4,34.3,56.7z"/>
	<path fill="#FFFFFF" d="M33.6,54.4c0.3,3.1-0.3,6.5-0.5,9.9c0,0.4-0.2,0.7-0.6,0.7c-0.4,0-0.6-0.3-0.6-0.7
		c-0.1-1.9-0.3-3.9-0.4-5.8c0-2.8,0.1-5.7,0.1-8.5c0.1-2.1,0.1-4.2,0.2-6.3c0-0.1,0-0.3,0-0.4c0-0.4,0.2-0.7,0.6-0.7
		c0.4,0,0.5,0.3,0.6,0.7c0,1.3,0.1,2.6,0.2,3.9C33.4,49.4,33.5,51.7,33.6,54.4z"/>
	<path fill="#FFFFFF" d="M30.7,52.8c0.1,1,0.2,2.1,0.2,3.1c-0.1,2-0.2,4-0.3,6c0,0.8-0.1,1.5-0.2,2.3c0,0.4-0.1,0.7-0.5,0.7
		c-0.4,0-0.5-0.4-0.5-0.7c-0.2-2.3-0.4-4.7-0.5-7c-0.1-1.6,0.1-3.3,0.2-4.9c0.1-2.1,0.2-4.2,0.3-6.2c0-0.2,0-0.4,0-0.5
		c0.1-0.2,0.3-0.4,0.5-0.4c0.2,0,0.4,0.2,0.5,0.4c0.1,0.1,0.1,0.2,0.1,0.4C30.4,48.2,30.6,50.5,30.7,52.8
		C30.7,52.8,30.7,52.8,30.7,52.8z"/>
	<path fill="#FFFFFF" d="M28.1,57.1c-0.1,1.7-0.3,3.3-0.5,5c-0.1,0.7-0.1,1.3-0.2,2c0,0.3,0,0.7-0.5,0.7c-0.5,0-0.5-0.4-0.5-0.8
		c-0.2-2-0.4-4-0.4-6.1c0-1.7,0.1-3.4,0.2-5.2c0-0.8,0.1-1.7,0.2-2.5c0-0.3,0.1-0.8,0.5-0.7c0.2,0,0.4,0.4,0.5,0.7
		C27.7,52.6,27.9,54.8,28.1,57.1z"/>
	<path fill="#FFFFFF" d="M23.2,57.1c0.2-2.5,0.4-4.9,0.6-7.4c0-0.2,0.3-0.3,0.4-0.5c0.1,0.2,0.4,0.3,0.4,0.5
		c0.2,2.4,0.6,4.9,0.6,7.3c0.1,1.6-0.2,3.2-0.4,4.8c-0.1,0.8-0.1,1.7-0.3,2.5c0,0.2-0.3,0.3-0.4,0.5c-0.1-0.2-0.3-0.3-0.4-0.5
		C23.6,61.9,23.4,59.4,23.2,57.1z"/>
	<path fill="#FFFFFF" d="M20.5,57.1c0.2-2.4,0.4-4.8,0.7-7.2c0-0.2,0.2-0.3,0.3-0.5c0.1,0.2,0.3,0.3,0.3,0.5
		c0.3,2.4,0.6,4.7,0.7,7.1c0.1,1.5-0.2,2.9-0.4,4.4C22,62.2,22,63,21.8,63.8c0,0.2-0.2,0.4-0.3,0.6c-0.1-0.2-0.3-0.4-0.4-0.6
		c-0.2-1.9-0.4-3.7-0.5-5.6C20.6,57.9,20.5,57.5,20.5,57.1z"/>
	<path fill="#FFFFFF" d="M17.8,57.1c0.2-2.1,0.4-4,0.7-6c0-0.1,0.2-0.3,0.3-0.4c0.1,0.1,0.3,0.3,0.3,0.4c0.2,1.8,0.5,3.6,0.7,5.4
		c0.1,1-0.1,2.1-0.2,3.2c-0.1,1.1-0.3,2.2-0.4,3.3c0,0.2-0.2,0.3-0.3,0.4c-0.1-0.1-0.3-0.3-0.3-0.4C18.2,61,18,59,17.8,57.1z"/>
	<path fill="#FFFFFF" d="M15.4,57.1c0.2-1.2,0.3-2.5,0.5-3.7c0-0.1,0.2-0.2,0.2-0.3c0.1,0.1,0.3,0.2,0.3,0.4c0.2,1,0.3,2,0.5,2.9
		c0.1,0.5,0.1,0.9,0,1.4c-0.1,1-0.3,1.9-0.4,2.9c0,0.2-0.2,0.3-0.3,0.4c-0.1-0.1-0.2-0.3-0.3-0.4C15.7,59.4,15.6,58.3,15.4,57.1z"/>
</g>
</svg>
