<?xml version="1.0" encoding="utf-8"?>
<!-- Generator: Adobe Illustrator 18.0.0, SVG Export Plug-In . SVG Version: 6.00 Build 0)  -->
<!DOCTYPE svg PUBLIC "-//W3C//DTD SVG 1.1//EN" "http://www.w3.org/Graphics/SVG/1.1/DTD/svg11.dtd">
<svg version="1.1" id="youtube" xmlns="http://www.w3.org/2000/svg" xmlns:xlink="http://www.w3.org/1999/xlink" x="0px" y="0px"
	 viewBox="0 0 100 100" enable-background="new 0 0 100 100" xml:space="preserve">
<g>
	<path fill="#FFFFFF" d="M62,62.2c-0.3,1.3-1.4,2.3-2.7,2.4C56.2,65,53.1,65,50,65c-3.1,0-6.2,0-9.3-0.4c-1.3-0.1-2.4-1.1-2.7-2.4
		c-0.4-1.9-0.4-3.9-0.4-5.9c0-1.9,0-4,0.4-5.9c0.3-1.3,1.4-2.3,2.7-2.4c3.1-0.3,6.2-0.3,9.3-0.3c3.1,0,6.2,0,9.3,0.3
		c1.3,0.2,2.4,1.1,2.7,2.4c0.4,1.9,0.4,3.9,0.4,5.9C62.4,58.3,62.4,60.3,62,62.2z M44.7,52.2v-1.6h-5.2v1.6h1.8v9.5h1.7v-9.5H44.7z
		 M47.4,35l-2,6.7v4.5h-1.7v-4.5c-0.2-0.8-0.5-2-1-3.5c-0.4-1-0.7-2.1-1.1-3.1h1.8l1.2,4.4l1.1-4.4H47.4z M49.2,61.7v-8.3h-1.5v6.3
		c-0.3,0.5-0.7,0.7-1,0.7c-0.2,0-0.3-0.1-0.4-0.4c0-0.1,0-0.2,0-0.6v-6.1h-1.5V60c0,0.6,0.1,1,0.1,1.2c0.1,0.4,0.5,0.6,1,0.6
		c0.5,0,1.1-0.3,1.7-1v0.9H49.2z M51.9,43.5c0,0.9-0.2,1.6-0.5,2c-0.4,0.6-1,0.9-1.8,0.9c-0.8,0-1.3-0.3-1.8-0.9
		c-0.3-0.4-0.5-1.1-0.5-2v-2.9c0-0.9,0.2-1.5,0.5-2c0.4-0.6,1-0.9,1.8-0.9c0.8,0,1.4,0.3,1.8,0.9c0.3,0.4,0.5,1.1,0.5,2V43.5z
		 M50.4,40.3c0-0.8-0.2-1.2-0.7-1.2c-0.5,0-0.7,0.4-0.7,1.2v3.5c0,0.8,0.2,1.2,0.7,1.2c0.5,0,0.7-0.4,0.7-1.2V40.3z M54.9,55.9
		c0-0.8,0-1.3-0.2-1.7c-0.2-0.6-0.6-0.9-1.2-0.9c-0.6,0-1.1,0.3-1.6,0.9v-3.6h-1.5v11.1H52v-0.8c0.5,0.6,1,0.9,1.6,0.9
		c0.6,0,1-0.3,1.2-0.9c0.1-0.4,0.2-0.9,0.2-1.7V55.9z M53.4,59.4c0,0.8-0.2,1.1-0.7,1.1c-0.3,0-0.5-0.1-0.8-0.4v-5
		c0.3-0.3,0.5-0.4,0.8-0.4c0.4,0,0.7,0.4,0.7,1.1V59.4z M57.5,46.2H56v-0.9c-0.6,0.7-1.2,1-1.7,1c-0.5,0-0.8-0.2-1-0.6
		c-0.1-0.3-0.1-0.7-0.1-1.3v-6.6h1.5V44c0,0.4,0,0.6,0,0.6c0,0.2,0.2,0.4,0.4,0.4c0.3,0,0.6-0.2,1-0.7v-6.4h1.5V46.2z M60.5,58.9H59
		c0,0.6,0,0.9,0,1c-0.1,0.4-0.3,0.6-0.7,0.6c-0.5,0-0.8-0.4-0.8-1.2v-1.5h3v-1.7c0-0.9-0.2-1.5-0.5-1.9c-0.4-0.6-1-0.9-1.8-0.9
		c-0.8,0-1.4,0.3-1.8,0.9c-0.3,0.4-0.5,1.1-0.5,1.9V59c0,0.9,0.2,1.5,0.5,1.9c0.4,0.6,1,0.9,1.8,0.9c0.8,0,1.4-0.3,1.8-0.9
		c0.2-0.3,0.3-0.6,0.4-0.9c0-0.2,0-0.5,0-1V58.9z M59.1,56.6h-1.5v-0.8c0-0.8,0.3-1.1,0.8-1.1s0.8,0.4,0.8,1.1V56.6z"/>
</g>
</svg>
